<?xml version="1.0" encoding="utf-8"?>
<!-- Generator: Adobe Illustrator 23.0.3, SVG Export Plug-In . SVG Version: 6.00 Build 0)  -->
<svg version="1.1" xmlns="http://www.w3.org/2000/svg" xmlns:xlink="http://www.w3.org/1999/xlink" x="0px" y="0px"
	 viewBox="0 0 1627.1 1627.1" style="enable-background:new 0 0 1627.1 1627.1;" xml:space="preserve">
<style type="text/css">
	.st0{fill:#F58220;}
	.st1{display:none;fill:#FFFFFF;}
	.st2{fill:none;stroke:#FFFFFF;stroke-width:104.764;}
	.st3{fill:#231F20;}
</style>
<g id="Circle">
	<circle class="st0" cx="813.6" cy="813.6" r="813.6"/>
</g>
<g id="Symbol" xmlns:cc="http://creativecommons.org/ns#" xmlns:dc="http://purl.org/dc/elements/1.1/" xmlns:rdf="http://www.w3.org/1999/02/22-rdf-syntax-ns#">
	<rect x="341.8" y="253.2" class="st1" width="640" height="1000"/>
	<g>
		<path class="st2" d="M453.2,561.4v-35.7c0-115.5,93.7-209.2,209.3-209.2c115.5,0,209.1,93.7,209.2,209.2v258.4"/>
		<circle class="st2" cx="661.8" cy="934" r="256.1"/>
	</g>
</g>
<g id="Text">
	<g>
		<path class="st3" d="M739.2,924.4c0,25.6-6.4,45.3-19.1,59.1c-12.7,13.8-30.9,20.7-54.7,20.7c-23.7,0-42-6.9-54.7-20.7
			c-12.7-13.8-19.1-33.6-19.1-59.3c0-25.8,6.4-45.5,19.1-59.1c12.7-13.6,31-20.4,54.8-20.4c23.8,0,42,6.9,54.6,20.6
			C732.9,879,739.2,898.7,739.2,924.4z M626.2,924.4c0,17.3,3.3,30.3,9.9,39.1c6.6,8.8,16.4,13.1,29.5,13.1
			c26.2,0,39.3-17.4,39.3-52.2c0-34.9-13-52.3-39.1-52.3c-13.1,0-22.9,4.4-29.6,13.2C629.5,894.1,626.2,907.1,626.2,924.4z"/>
		<path class="st3" d="M878.4,895.5c0,16.7-5.2,29.4-15.6,38.3c-10.4,8.8-25.2,13.2-44.4,13.2h-14.1v55.1h-32.8V847.2h49.5
			c18.8,0,33.1,4,42.9,12.1C873.5,867.4,878.4,879.5,878.4,895.5z M804.2,920.1H815c10.1,0,17.7-2,22.7-6c5-4,7.5-9.8,7.5-17.4
			c0-7.7-2.1-13.4-6.3-17.1c-4.2-3.7-10.8-5.5-19.8-5.5h-14.9V920.1z"/>
		<path class="st3" d="M996.8,1002.1h-89.2V847.2h89.2v26.9h-56.4v34h52.4V935h-52.4V975h56.4V1002.1z"/>
		<path class="st3" d="M1166.6,1002.1h-41.7l-67.4-117.2h-1c1.3,20.7,2,35.5,2,44.3v72.9h-29.3V847.2h41.4l67.3,116h0.7
			c-1.1-20.1-1.6-34.4-1.6-42.7v-73.3h29.6V1002.1z"/>
		<path class="st3" d="M663.4,1162.1l-8.3-27.2h-41.6l-8.3,27.2h-26.1l40.3-114.7h29.6l40.5,114.7H663.4z M649.4,1114.6
			c-7.7-24.6-12-38.6-12.9-41.8c-1-3.2-1.7-5.8-2.1-7.7c-1.7,6.7-6.6,23.2-14.8,49.5H649.4z"/>
		<path class="st3" d="M755.9,1066.4c-9.1,0-16.2,3.4-21.2,10.3c-5,6.8-7.5,16.4-7.5,28.6c0,25.5,9.6,38.2,28.7,38.2
			c8,0,17.7-2,29.1-6v20.3c-9.4,3.9-19.8,5.9-31.4,5.9c-16.6,0-29.3-5-38.1-15.1c-8.8-10.1-13.2-24.5-13.2-43.4
			c0-11.9,2.2-22.3,6.5-31.2c4.3-8.9,10.5-15.8,18.6-20.5c8.1-4.8,17.6-7.1,28.5-7.1c11.1,0,22.2,2.7,33.4,8l-7.8,19.7
			c-4.3-2-8.6-3.8-12.9-5.3C764.4,1067.1,760.1,1066.4,755.9,1066.4z"/>
		<path class="st3" d="M861.4,1066.4c-9.1,0-16.2,3.4-21.2,10.3c-5,6.8-7.5,16.4-7.5,28.6c0,25.5,9.6,38.2,28.7,38.2
			c8,0,17.7-2,29.1-6v20.3c-9.4,3.9-19.8,5.9-31.4,5.9c-16.6,0-29.3-5-38.1-15.1c-8.8-10.1-13.2-24.5-13.2-43.4
			c0-11.9,2.2-22.3,6.5-31.2c4.3-8.9,10.5-15.8,18.6-20.5c8.1-4.8,17.6-7.1,28.5-7.1c11.1,0,22.2,2.7,33.4,8L887,1074
			c-4.3-2-8.6-3.8-12.9-5.3C869.8,1067.1,865.6,1066.4,861.4,1066.4z"/>
		<path class="st3" d="M984.2,1162.1h-65.8v-114.2h65.8v19.8h-41.6v25.1h38.7v19.8h-38.7v29.5h41.6V1162.1z"/>
		<path class="st3" d="M1078.9,1130.4c0,10.3-3.7,18.4-11.1,24.4s-17.7,8.9-31,8.9c-12.2,0-23-2.3-32.3-6.9v-22.5
			c7.7,3.4,14.2,5.9,19.6,7.3c5.3,1.4,10.2,2.1,14.6,2.1c5.3,0,9.4-1,12.2-3c2.8-2,4.3-5.1,4.3-9.1c0-2.2-0.6-4.2-1.9-6
			c-1.3-1.7-3.1-3.4-5.5-5c-2.4-1.6-7.4-4.2-14.8-7.7c-7-3.3-12.2-6.4-15.7-9.5c-3.5-3-6.3-6.5-8.4-10.5c-2.1-4-3.1-8.7-3.1-14.1
			c0-10.1,3.4-18,10.3-23.8c6.8-5.8,16.3-8.7,28.4-8.7c5.9,0,11.6,0.7,17,2.1s11,3.4,16.9,5.9l-7.8,18.8c-6.1-2.5-11.1-4.2-15.1-5.2
			c-4-1-7.9-1.5-11.8-1.5c-4.6,0-8.1,1.1-10.5,3.2c-2.4,2.1-3.7,4.9-3.7,8.4c0,2.1,0.5,4,1.5,5.6c1,1.6,2.6,3.1,4.7,4.6
			c2.2,1.5,7.3,4.2,15.4,8c10.7,5.1,18,10.2,22,15.4C1076.9,1116.6,1078.9,1122.9,1078.9,1130.4z"/>
		<path class="st3" d="M1170.6,1130.4c0,10.3-3.7,18.4-11.1,24.4s-17.7,8.9-31,8.9c-12.2,0-23-2.3-32.3-6.9v-22.5
			c7.7,3.4,14.2,5.9,19.6,7.3c5.3,1.4,10.2,2.1,14.6,2.1c5.3,0,9.4-1,12.2-3c2.8-2,4.3-5.1,4.3-9.1c0-2.2-0.6-4.2-1.9-6
			c-1.3-1.7-3.1-3.4-5.5-5c-2.4-1.6-7.4-4.2-14.8-7.7c-7-3.3-12.2-6.4-15.7-9.5c-3.5-3-6.3-6.5-8.4-10.5c-2.1-4-3.1-8.7-3.1-14.1
			c0-10.1,3.4-18,10.3-23.8c6.8-5.8,16.3-8.7,28.4-8.7c5.9,0,11.6,0.7,17,2.1s11,3.4,16.9,5.9l-7.8,18.8c-6.1-2.5-11.1-4.2-15.1-5.2
			c-4-1-7.9-1.5-11.8-1.5c-4.6,0-8.1,1.1-10.5,3.2c-2.4,2.1-3.7,4.9-3.7,8.4c0,2.1,0.5,4,1.5,5.6c1,1.6,2.6,3.1,4.7,4.6
			c2.2,1.5,7.3,4.2,15.4,8c10.7,5.1,18,10.2,22,15.4C1168.6,1116.6,1170.6,1122.9,1170.6,1130.4z"/>
	</g>
</g>
</svg>
