<?xml version="1.0" encoding="utf-8"?>
<!-- Generator: Adobe Illustrator 23.0.3, SVG Export Plug-In . SVG Version: 6.00 Build 0)  -->
<svg version="1.1" xmlns="http://www.w3.org/2000/svg" xmlns:xlink="http://www.w3.org/1999/xlink" x="0px" y="0px"
	 viewBox="0 0 328 107" style="enable-background:new 0 0 328 107;" xml:space="preserve">
<style type="text/css">
	.st0{fill:#4486B8;}
	.st1{fill:#005B9E;}
	.st2{fill:#FFFFFF;}
</style>
<g id="Text_-_expanded">
	<g>
		<path class="st0" d="M32,51c-11.4,0-13.9-8.7-13.9-18.4c0-9.8,2.4-18.4,13.9-18.4c11.2,0,13.8,8.9,13.8,18.4
			C45.8,42.3,43.5,51,32,51z M32,16.2c-8.5,0-8.7,10.2-8.7,16.4c0,6.1,0.2,16.3,8.7,16.3c8.4,0,8.6-10.2,8.6-16.3
			C40.6,26.5,40.4,16.2,32,16.2z"/>
		<path class="st0" d="M64.7,51c-2.8,0-5.6-1.5-6.7-4.2h-0.1v14.9h-4.1V30.8c0-2.9-1.8-3.3-4.2-3.6v-0.9l8.3-1.2v4H58
			c1-2.4,3.8-4,6.4-4c7.4,0,9.8,6.5,9.8,12.8C74.2,44.1,72,51,64.7,51z M63.8,27.2c-4,0-5.8,5.1-5.8,8.4v3.8c0,3.7,1.4,9.4,6,9.4
			c5,0,5.7-7.1,5.7-10.8C69.7,34.4,68.6,27.2,63.8,27.2z"/>
		<path class="st0" d="M83.5,35.2v1.1c0,6.1,4.5,12.6,11.1,12.6c1.3,0,2.5-0.3,3.8-0.6V50c-1.7,0.7-4.7,1-6.6,1
			c-8.5,0-12.3-5.6-12.3-13.7c0-7.4,2.7-12.1,10.7-12.1c5.7,0,8.9,3.6,8.9,9.2v0.8H83.5z M94.4,32.9c0-3-1.8-5.7-5-5.7
			c-3.8,0-5.5,2.7-5.8,6.1h10.8V32.9z"/>
		<path class="st0" d="M121.6,50.4V33.3c0-2.9,0-5.5-3.7-5.5c-3.9,0-7.5,6.6-7.5,10v12.6h-4.1V30.8c0-2.7-1.7-3.3-4-3.5v-0.9
			l8.1-1.3v7h0.1c1.4-3.7,4.7-7,8.9-7c4.6,0,6.3,1.9,6.3,6.4v18.9H121.6z"/>
		<path class="st1" d="M145.2,50.4h-9.8V20.7c0-4.3-1.3-4.4-5.2-5.1v-0.9H145c5.9,0,11.9,1.3,11.9,8.5c0,4-2.3,7.2-6.3,8.1v0.1
			c5.1,1,8.1,4,8.1,9.4C158.7,48.8,151.8,50.4,145.2,50.4z M143.9,16.8c-3.7,0-3.9,0.4-3.9,4v9.8h2.6c4.7,0,9.1-1.2,9.1-6.8
			C151.7,18.6,148.6,16.8,143.9,16.8z M142.6,32.6H140V44c0,4.1,0.1,4.3,4.4,4.3c5,0,9.1-1.9,9.1-7.5
			C153.5,33.9,148.4,32.6,142.6,32.6z"/>
		<path class="st1" d="M175.1,51c-7.6,0-11.1-5.8-11.1-12.8c0-7.3,2.9-13,11-13c7.7,0,11.1,5.9,11.1,13
			C186.1,45.4,183.1,51,175.1,51z M175.1,27.2c-6.1,0-6.5,6.4-6.5,11c0,4.3,1.1,10.7,6.6,10.7c5.9,0,6.5-6.3,6.5-10.7
			C181.6,33.8,180.8,27.2,175.1,27.2z"/>
		<path class="st1" d="M203.2,51c-7.6,0-11.1-5.8-11.1-12.8c0-7.3,2.9-13,11-13c7.7,0,11.1,5.9,11.1,13
			C214.2,45.4,211.1,51,203.2,51z M203.1,27.2c-6.1,0-6.5,6.4-6.5,11c0,4.3,1.1,10.7,6.6,10.7c5.9,0,6.5-6.3,6.5-10.7
			C209.7,33.8,208.8,27.2,203.1,27.2z"/>
		<path class="st1" d="M236.3,50.4l-10.3-12.9h-0.1v12.9h-4.1V18.8c0-2.8-1.7-3.3-4.1-3.5v-0.9l8.2-1.2v22.8l10-10.4h3.6L229.6,36
			l11.6,14.4H236.3z"/>
	</g>
	<g>
		<path class="st1" d="M77.2,76.1v12.6h-3.4V66.6c0-2.8-1.3-3.1-3.9-3.5v-0.7h9.4c5.1,0,10.6,0.2,10.6,6.8
			C90,76.7,82.5,76.1,77.2,76.1z M80.5,64c-2.6,0-3.3-0.1-3.3,2.6v8h1.7c3.9,0,7.3-0.4,7.3-5.3C86.1,65.6,84.1,64,80.5,64z"/>
		<path class="st1" d="M107.9,88.7v-4.3h-0.1c-0.9,2.5-3.1,4.7-5.9,4.7c-4.6,0-5.3-3.5-5.3-7.3v-7.5c0-2-1.2-2.4-2.9-2.6v-0.7
			l5.9-0.9v12.2c0,2.2,0.5,4.9,3.3,4.9c2.7,0,5-5,5-7.3v-5.6c0-2-1.2-2.4-2.9-2.6v-0.7l5.9-0.9v18.6H107.9z"/>
		<path class="st1" d="M126.6,89.2c-2,0-3.4-0.7-4.8-2.1l-2,1.6h-1V66.2c0-2.4-0.6-3.3-3.1-3.3v-0.7l6.1-0.9v11.8h0.1
			c1-2,2.9-3.1,5.1-3.1c5.4,0,7.1,5,7.1,9.6C134.1,84.7,132.3,89.2,126.6,89.2z M126.3,71.7c-2.8,0-4.4,3.7-4.4,6.1v2.9
			c0,3.4,0.4,6.9,4.7,6.9c3.8,0,4.3-5.1,4.3-7.9C130.8,76.8,130.1,71.7,126.3,71.7z"/>
		<path class="st1" d="M141.2,88.7V65.5c0-2.1-1.3-2.5-3-2.6v-0.7l6-0.9v27.3H141.2z"/>
		<path class="st1" d="M152.8,88.7V74.4c0-2-1.2-2.4-2.9-2.6v-0.7l5.9-0.9v18.6H152.8z M154.2,66.4c-1.2,0-2.2-0.9-2.2-2.2
			s1-2.2,2.2-2.2c1.2,0,2.2,1,2.2,2.2C156.3,65.5,155.4,66.4,154.2,66.4z"/>
		<path class="st1" d="M166.4,89.2c-1.7,0-3.4-0.2-5-0.8v-2.5c1.6,0.9,3.3,1.7,5.2,1.7c2.2,0,4.1-0.8,4.1-3.3c0-4-9.2-3.9-9.2-9
			c0-3.9,2.9-5.1,6.4-5.1c1.5,0,2.9,0.3,4.3,0.7v2.3c-1.5-0.8-3-1.5-4.7-1.5c-1.6,0-3.2,0.6-3.2,2.5c0,3.9,9.2,3.3,9.2,9.4
			C173.4,87.7,170.1,89.2,166.4,89.2z"/>
		<path class="st1" d="M189.7,88.7V77.1c0-2,0.2-5-2.6-5c-2.1,0-4.2,3.7-4.8,5.4c-0.3,0.9-0.5,1.9-0.5,2.8v8.4h-3V65.5
			c0-2-1.3-2.5-3-2.6v-0.7l6-0.9v14h0.1c1.1-2.4,3.1-5.3,6.1-5.3c4.1,0,4.7,3.2,4.7,6.6v12H189.7z"/>
		<path class="st1" d="M202.4,77.5v0.8c0,4.5,3.3,9.3,8.2,9.3c0.9,0,1.9-0.2,2.8-0.5v1.3c-1.3,0.5-3.5,0.7-4.8,0.7
			c-6.2,0-9.1-4.1-9.1-10.1c0-5.4,2-8.9,7.8-8.9c4.2,0,6.6,2.7,6.6,6.8v0.6H202.4z M210.4,75.9c0-2.2-1.3-4.2-3.7-4.2
			c-2.8,0-4.1,2-4.3,4.5h8V75.9z"/>
		<path class="st1" d="M227.7,73.2c-3.5,0-4.3,3.3-4.3,6.2v9.4h-3V74.5c0-2.1-1.2-2.5-3-2.7v-0.7l6-0.9v4.6h0.1
			c0.8-2.7,2.1-4.6,5.2-4.6c0.1,0,0.2,0,0.4,0v3.2C228.6,73.3,228.1,73.2,227.7,73.2z"/>
		<path class="st1" d="M237.1,89.2c-1.7,0-3.4-0.2-5-0.8v-2.5c1.6,0.9,3.3,1.7,5.2,1.7c2.2,0,4.1-0.8,4.1-3.3c0-4-9.2-3.9-9.2-9
			c0-3.9,2.9-5.1,6.4-5.1c1.5,0,2.9,0.3,4.3,0.7v2.3c-1.5-0.8-3-1.5-4.7-1.5c-1.6,0-3.2,0.6-3.2,2.5c0,3.9,9.2,3.3,9.2,9.4
			C244,87.7,240.7,89.2,237.1,89.2z"/>
	</g>
</g>
<g id="Logo">
	<path class="st2" d="M300.8,22.7c0,2.3,0,4.3,0,6.5c2.2-1,4.1-2.1,6.4-2.9c0,2.6,0,5,0,7.4c2.2-0.3,4.2-0.8,6.3-0.8
		c0,14.9,0,29.6,0,44.5c-10.1,4.2-20.2,8.4-30.3,12.7c-10.1-4.2-20.1-8.4-30.3-12.7c0-14.8,0-29.6,0-44.5c1.9,0.3,3.8,0.5,5.9,0.8
		c0-2.5,0-4.8,0-7.4c2.3,0.8,4.3,1.9,6.5,2.9c0-2.2,0-4.2,0-6.6c7.3,5.4,13.6,11.2,17.8,19.1C287.3,33.9,293.6,28.1,300.8,22.7z"/>
	<path class="st0" d="M300.8,22.7c0,2.3,0,4.3,0,6.5c2.2-1,4.1-2.1,6.4-2.9c0,2.6,0,5,0,7.4c2.2-0.3,4.2-0.8,6.3-0.8
		c0,14.9,0,29.6,0,44.5c-10.1,4.2-20.2,8.4-30.3,12.7c-10.1-4.2-20.1-8.4-30.3-12.7c0-14.8,0-29.6,0-44.5c1.9,0.3,3.8,0.5,5.9,0.8
		c0-2.5,0-4.8,0-7.4c2.3,0.8,4.3,1.9,6.5,2.9c0-2.2,0-4.2,0-6.6c7.3,5.4,13.6,11.2,17.8,19.1C287.3,33.9,293.6,28.1,300.8,22.7z
		 M287.1,82.3c0.1-0.1,0.2-0.2,0.3-0.2c0.1-0.1,0.3-0.2,0.4-0.3c5.5-4.6,11.7-7.9,18.4-10.5c-0.2-14.1-0.4-28.1-0.6-42.2
		c-1.6,0.8-3.2,1.4-4.6,2.4c0.1,12.2,0.3,24.3,0.4,36.4c-1.7,1.4-3.4,2.8-5.1,4.3c-3.2,2.9-6.3,5.9-8.7,9.5 M300.8,80.8
		c3.6-1.5,7.2-3,10.9-4.6c0-13.8,0-27.5,0-41.3c-1.5,0.2-2.9,0.5-4.4,0.7c0.2,12.3,0.4,24.8,0.6,36.9l-1.4,0.5
		c-2.6,1-5.2,2.2-7.7,3.5c-4.7,2.5-9.2,5.4-12.7,9.5l-0.8,1.2 M283.8,83.6c4-6.7,9.8-11.9,15.7-16.6c-0.1-13.5-0.3-26.9-0.4-40.7
		c-1.5,1.3-2.8,2.4-4,3.5c-4.2,3.9-8,8-10.4,13.2c-0.5,1-0.9,1.9-0.9,3.1 M267.1,26.3c-0.2,13.8-0.3,27.3-0.5,40.7
		c6.1,4.9,11.6,10.1,15.7,16.6c0-0.4,0-0.8,0-1.3c0-11.8,0-23.6,0-35.4c0-1.6-0.3-3.1-1.1-4.5C278.1,35.9,272.9,31.1,267.1,26.3z
		 M254.7,76.2c8.7,3.6,17.3,7.2,26.3,11c-1.3-1.8-2.6-3.2-4.1-4.4c-5.1-4.3-10.9-7.3-17-9.8c-0.6-0.2-1.7-0.7-1.7-0.7
		c0.2-12.1,0.4-24.6,0.6-36.9l-4.1-0.6C254.7,48.7,254.7,62.4,254.7,76.2z M260.7,29c-0.2,14.1-0.4,28.1-0.7,42.2
		c6.7,2.7,13,6,18.7,10.5c-3.7-5.6-8.6-9.9-13.7-14c0.1-12.3,0.3-24.4,0.4-36.5C263.8,30.5,262.3,29.7,260.7,29z"/>
</g>
</svg>
